<mxfile host="65bd71144e">
    <diagram id="C5RBs43oDa-KdzZeNtuy" name="Page-1">
        <mxGraphModel dx="1963" dy="1749" grid="1" gridSize="10" guides="1" tooltips="1" connect="1" arrows="1" fold="1" page="1" pageScale="1" pageWidth="827" pageHeight="1169" math="0" shadow="0">
            <root>
                <mxCell id="WIyWlLk6GJQsqaUBKTNV-0"/>
                <mxCell id="WIyWlLk6GJQsqaUBKTNV-1" parent="WIyWlLk6GJQsqaUBKTNV-0"/>
                <mxCell id="mCYg9r9cmCHu4iVL0JhN-7" style="edgeStyle=orthogonalEdgeStyle;rounded=0;orthogonalLoop=1;jettySize=auto;html=1;entryX=0.5;entryY=0;entryDx=0;entryDy=0;" parent="WIyWlLk6GJQsqaUBKTNV-1" source="mCYg9r9cmCHu4iVL0JhN-0" target="mCYg9r9cmCHu4iVL0JhN-2" edge="1">
                    <mxGeometry relative="1" as="geometry"/>
                </mxCell>
                <mxCell id="mCYg9r9cmCHu4iVL0JhN-0" value="START" style="ellipse;whiteSpace=wrap;html=1;" parent="WIyWlLk6GJQsqaUBKTNV-1" vertex="1">
                    <mxGeometry x="40" y="40" width="120" height="80" as="geometry"/>
                </mxCell>
                <mxCell id="mCYg9r9cmCHu4iVL0JhN-1" value="END" style="ellipse;whiteSpace=wrap;html=1;" parent="WIyWlLk6GJQsqaUBKTNV-1" vertex="1">
                    <mxGeometry x="40" y="450" width="120" height="80" as="geometry"/>
                </mxCell>
                <mxCell id="mCYg9r9cmCHu4iVL0JhN-8" value="" style="edgeStyle=orthogonalEdgeStyle;rounded=0;orthogonalLoop=1;jettySize=auto;html=1;" parent="WIyWlLk6GJQsqaUBKTNV-1" source="mCYg9r9cmCHu4iVL0JhN-2" target="mCYg9r9cmCHu4iVL0JhN-3" edge="1">
                    <mxGeometry relative="1" as="geometry"/>
                </mxCell>
                <mxCell id="mCYg9r9cmCHu4iVL0JhN-2" value="Input &quot;Malam&quot;" style="shape=parallelogram;perimeter=parallelogramPerimeter;whiteSpace=wrap;html=1;fixedSize=1;" parent="WIyWlLk6GJQsqaUBKTNV-1" vertex="1">
                    <mxGeometry x="40" y="150" width="120" height="60" as="geometry"/>
                </mxCell>
                <mxCell id="mCYg9r9cmCHu4iVL0JhN-9" value="" style="edgeStyle=orthogonalEdgeStyle;rounded=0;orthogonalLoop=1;jettySize=auto;html=1;" parent="WIyWlLk6GJQsqaUBKTNV-1" source="mCYg9r9cmCHu4iVL0JhN-3" target="mCYg9r9cmCHu4iVL0JhN-4" edge="1">
                    <mxGeometry relative="1" as="geometry"/>
                </mxCell>
                <mxCell id="mCYg9r9cmCHu4iVL0JhN-3" value="Proses Membalik&lt;br&gt;Text" style="rounded=0;whiteSpace=wrap;html=1;" parent="WIyWlLk6GJQsqaUBKTNV-1" vertex="1">
                    <mxGeometry x="40" y="240" width="120" height="60" as="geometry"/>
                </mxCell>
                <mxCell id="mCYg9r9cmCHu4iVL0JhN-10" value="Iya" style="edgeStyle=orthogonalEdgeStyle;rounded=0;orthogonalLoop=1;jettySize=auto;html=1;" parent="WIyWlLk6GJQsqaUBKTNV-1" source="mCYg9r9cmCHu4iVL0JhN-4" target="mCYg9r9cmCHu4iVL0JhN-5" edge="1">
                    <mxGeometry relative="1" as="geometry"/>
                </mxCell>
                <mxCell id="mCYg9r9cmCHu4iVL0JhN-11" value="Tidak" style="edgeStyle=orthogonalEdgeStyle;rounded=0;orthogonalLoop=1;jettySize=auto;html=1;" parent="WIyWlLk6GJQsqaUBKTNV-1" source="mCYg9r9cmCHu4iVL0JhN-4" target="mCYg9r9cmCHu4iVL0JhN-6" edge="1">
                    <mxGeometry relative="1" as="geometry"/>
                </mxCell>
                <mxCell id="mCYg9r9cmCHu4iVL0JhN-4" value="Palindrome&lt;br&gt;?" style="rhombus;whiteSpace=wrap;html=1;" parent="WIyWlLk6GJQsqaUBKTNV-1" vertex="1">
                    <mxGeometry x="55" y="320" width="90" height="100" as="geometry"/>
                </mxCell>
                <mxCell id="mCYg9r9cmCHu4iVL0JhN-14" style="edgeStyle=orthogonalEdgeStyle;rounded=0;orthogonalLoop=1;jettySize=auto;html=1;entryX=1;entryY=0.5;entryDx=0;entryDy=0;" parent="WIyWlLk6GJQsqaUBKTNV-1" source="mCYg9r9cmCHu4iVL0JhN-5" target="mCYg9r9cmCHu4iVL0JhN-1" edge="1">
                    <mxGeometry relative="1" as="geometry">
                        <Array as="points">
                            <mxPoint x="240" y="490"/>
                        </Array>
                    </mxGeometry>
                </mxCell>
                <mxCell id="mCYg9r9cmCHu4iVL0JhN-5" value="Output&lt;br&gt;&quot;Palindrome&quot;" style="shape=parallelogram;perimeter=parallelogramPerimeter;whiteSpace=wrap;html=1;fixedSize=1;" parent="WIyWlLk6GJQsqaUBKTNV-1" vertex="1">
                    <mxGeometry x="190" y="340" width="120" height="60" as="geometry"/>
                </mxCell>
                <mxCell id="mCYg9r9cmCHu4iVL0JhN-13" style="edgeStyle=orthogonalEdgeStyle;rounded=0;orthogonalLoop=1;jettySize=auto;html=1;entryX=0;entryY=0.5;entryDx=0;entryDy=0;" parent="WIyWlLk6GJQsqaUBKTNV-1" source="mCYg9r9cmCHu4iVL0JhN-6" target="mCYg9r9cmCHu4iVL0JhN-1" edge="1">
                    <mxGeometry relative="1" as="geometry">
                        <Array as="points">
                            <mxPoint x="-70" y="490"/>
                        </Array>
                    </mxGeometry>
                </mxCell>
                <mxCell id="mCYg9r9cmCHu4iVL0JhN-6" value="Output &quot;Bukan Palindrome&quot;" style="shape=parallelogram;perimeter=parallelogramPerimeter;whiteSpace=wrap;html=1;fixedSize=1;" parent="WIyWlLk6GJQsqaUBKTNV-1" vertex="1">
                    <mxGeometry x="-120" y="340" width="120" height="60" as="geometry"/>
                </mxCell>
                <mxCell id="mCYg9r9cmCHu4iVL0JhN-15" value="&lt;h1&gt;1. Deteksi Palindrome&lt;/h1&gt;" style="text;html=1;align=center;verticalAlign=middle;resizable=0;points=[];autosize=1;strokeColor=none;fillColor=none;" parent="WIyWlLk6GJQsqaUBKTNV-1" vertex="1">
                    <mxGeometry x="-35" y="-50" width="270" height="70" as="geometry"/>
                </mxCell>
                <mxCell id="mCYg9r9cmCHu4iVL0JhN-16" value="&lt;div style=&quot;text-align: justify; font-size: 17px;&quot;&gt;&lt;span style=&quot;background-color: initial;&quot;&gt;&lt;font style=&quot;font-size: 17px;&quot;&gt;1. Start&lt;/font&gt;&lt;/span&gt;&lt;/div&gt;&lt;div style=&quot;text-align: justify; font-size: 17px;&quot;&gt;&lt;span style=&quot;background-color: initial;&quot;&gt;&lt;font style=&quot;font-size: 17px;&quot;&gt;2. Menginput string &quot;Malam&quot;&lt;/font&gt;&lt;/span&gt;&lt;/div&gt;&lt;div style=&quot;text-align: justify; font-size: 17px;&quot;&gt;&lt;span style=&quot;background-color: initial;&quot;&gt;&lt;font style=&quot;font-size: 17px;&quot;&gt;3. Proses pembalikkan kata malam&lt;/font&gt;&lt;/span&gt;&lt;/div&gt;&lt;div style=&quot;text-align: justify; font-size: 17px;&quot;&gt;&lt;span style=&quot;background-color: initial;&quot;&gt;&lt;font style=&quot;font-size: 17px;&quot;&gt;4. Pengecekkan palindrome&lt;/font&gt;&lt;/span&gt;&lt;/div&gt;&lt;div style=&quot;text-align: justify; font-size: 17px;&quot;&gt;&lt;font style=&quot;font-size: 17px;&quot;&gt;5. Jika &quot;iya&quot; maka output &quot;Palindrome&quot;&lt;/font&gt;&lt;/div&gt;&lt;div style=&quot;text-align: justify; font-size: 17px;&quot;&gt;&lt;font style=&quot;font-size: 17px;&quot;&gt;6. Jika &quot;Tidak&quot; maka output &quot;Bukan Palindrome&quot;&lt;/font&gt;&lt;/div&gt;&lt;div style=&quot;text-align: justify; font-size: 17px;&quot;&gt;&lt;font style=&quot;font-size: 17px;&quot;&gt;7. End&lt;/font&gt;&lt;/div&gt;" style="text;html=1;align=center;verticalAlign=middle;resizable=0;points=[];autosize=1;strokeColor=none;fillColor=none;" parent="WIyWlLk6GJQsqaUBKTNV-1" vertex="1">
                    <mxGeometry x="190" y="40" width="380" height="160" as="geometry"/>
                </mxCell>
                <mxCell id="mCYg9r9cmCHu4iVL0JhN-18" value="&lt;h1&gt;2. Mengubah Huruf Konsonan&lt;/h1&gt;" style="text;html=1;align=center;verticalAlign=middle;resizable=0;points=[];autosize=1;strokeColor=none;fillColor=none;" parent="WIyWlLk6GJQsqaUBKTNV-1" vertex="1">
                    <mxGeometry x="590" y="-50" width="360" height="70" as="geometry"/>
                </mxCell>
                <mxCell id="as_24OD4NIslSTrrhi6Q-15" value="" style="edgeStyle=orthogonalEdgeStyle;rounded=0;orthogonalLoop=1;jettySize=auto;html=1;fontSize=14;" parent="WIyWlLk6GJQsqaUBKTNV-1" source="as_24OD4NIslSTrrhi6Q-0" target="as_24OD4NIslSTrrhi6Q-1" edge="1">
                    <mxGeometry relative="1" as="geometry"/>
                </mxCell>
                <mxCell id="as_24OD4NIslSTrrhi6Q-0" value="START" style="ellipse;whiteSpace=wrap;html=1;" parent="WIyWlLk6GJQsqaUBKTNV-1" vertex="1">
                    <mxGeometry x="620" y="40" width="120" height="80" as="geometry"/>
                </mxCell>
                <mxCell id="as_24OD4NIslSTrrhi6Q-14" value="" style="edgeStyle=orthogonalEdgeStyle;rounded=0;orthogonalLoop=1;jettySize=auto;html=1;fontSize=14;" parent="WIyWlLk6GJQsqaUBKTNV-1" source="as_24OD4NIslSTrrhi6Q-1" target="as_24OD4NIslSTrrhi6Q-4" edge="1">
                    <mxGeometry relative="1" as="geometry"/>
                </mxCell>
                <mxCell id="as_24OD4NIslSTrrhi6Q-1" value="Input &quot;Jakarta&quot;" style="shape=parallelogram;perimeter=parallelogramPerimeter;whiteSpace=wrap;html=1;fixedSize=1;" parent="WIyWlLk6GJQsqaUBKTNV-1" vertex="1">
                    <mxGeometry x="620" y="150" width="120" height="60" as="geometry"/>
                </mxCell>
                <mxCell id="as_24OD4NIslSTrrhi6Q-20" style="edgeStyle=orthogonalEdgeStyle;rounded=0;orthogonalLoop=1;jettySize=auto;html=1;fontSize=14;" parent="WIyWlLk6GJQsqaUBKTNV-1" source="as_24OD4NIslSTrrhi6Q-2" target="as_24OD4NIslSTrrhi6Q-8" edge="1">
                    <mxGeometry relative="1" as="geometry"/>
                </mxCell>
                <mxCell id="as_24OD4NIslSTrrhi6Q-2" value="Proses Mengubah Huruf &quot;a&quot; &lt;br&gt;menjadi &quot;o&quot;" style="rounded=0;whiteSpace=wrap;html=1;" parent="WIyWlLk6GJQsqaUBKTNV-1" vertex="1">
                    <mxGeometry x="780" y="350" width="120" height="60" as="geometry"/>
                </mxCell>
                <mxCell id="as_24OD4NIslSTrrhi6Q-13" style="edgeStyle=orthogonalEdgeStyle;rounded=0;orthogonalLoop=1;jettySize=auto;html=1;fontSize=14;" parent="WIyWlLk6GJQsqaUBKTNV-1" source="as_24OD4NIslSTrrhi6Q-4" target="as_24OD4NIslSTrrhi6Q-5" edge="1">
                    <mxGeometry relative="1" as="geometry"/>
                </mxCell>
                <mxCell id="as_24OD4NIslSTrrhi6Q-4" value="Proses Pengecekan Huruf" style="rounded=0;whiteSpace=wrap;html=1;" parent="WIyWlLk6GJQsqaUBKTNV-1" vertex="1">
                    <mxGeometry x="620" y="240" width="120" height="60" as="geometry"/>
                </mxCell>
                <mxCell id="as_24OD4NIslSTrrhi6Q-9" value="Iya" style="edgeStyle=orthogonalEdgeStyle;rounded=0;orthogonalLoop=1;jettySize=auto;html=1;fontSize=14;align=center;" parent="WIyWlLk6GJQsqaUBKTNV-1" source="as_24OD4NIslSTrrhi6Q-5" target="as_24OD4NIslSTrrhi6Q-2" edge="1">
                    <mxGeometry relative="1" as="geometry"/>
                </mxCell>
                <mxCell id="as_24OD4NIslSTrrhi6Q-12" value="Tidak" style="edgeStyle=orthogonalEdgeStyle;rounded=0;orthogonalLoop=1;jettySize=auto;html=1;entryX=0.5;entryY=0.5;entryDx=0;entryDy=0;entryPerimeter=0;fontSize=14;" parent="WIyWlLk6GJQsqaUBKTNV-1" source="as_24OD4NIslSTrrhi6Q-5" target="as_24OD4NIslSTrrhi6Q-11" edge="1">
                    <mxGeometry relative="1" as="geometry"/>
                </mxCell>
                <mxCell id="as_24OD4NIslSTrrhi6Q-5" value="Terdapat &lt;br&gt;Huruf &quot;a&quot;&lt;br&gt;?" style="rhombus;whiteSpace=wrap;html=1;" parent="WIyWlLk6GJQsqaUBKTNV-1" vertex="1">
                    <mxGeometry x="633.5" y="330" width="93" height="100" as="geometry"/>
                </mxCell>
                <mxCell id="as_24OD4NIslSTrrhi6Q-7" value="END" style="ellipse;whiteSpace=wrap;html=1;" parent="WIyWlLk6GJQsqaUBKTNV-1" vertex="1">
                    <mxGeometry x="620" y="520" width="120" height="80" as="geometry"/>
                </mxCell>
                <mxCell id="as_24OD4NIslSTrrhi6Q-19" style="edgeStyle=orthogonalEdgeStyle;rounded=0;orthogonalLoop=1;jettySize=auto;html=1;entryX=1;entryY=0.5;entryDx=0;entryDy=0;fontSize=14;" parent="WIyWlLk6GJQsqaUBKTNV-1" source="as_24OD4NIslSTrrhi6Q-8" target="as_24OD4NIslSTrrhi6Q-7" edge="1">
                    <mxGeometry relative="1" as="geometry">
                        <Array as="points">
                            <mxPoint x="840" y="560"/>
                        </Array>
                    </mxGeometry>
                </mxCell>
                <mxCell id="as_24OD4NIslSTrrhi6Q-8" value="Output&lt;br&gt;&quot;Jokorto&quot;" style="shape=parallelogram;perimeter=parallelogramPerimeter;whiteSpace=wrap;html=1;fixedSize=1;" parent="WIyWlLk6GJQsqaUBKTNV-1" vertex="1">
                    <mxGeometry x="780" y="450" width="120" height="60" as="geometry"/>
                </mxCell>
                <mxCell id="as_24OD4NIslSTrrhi6Q-18" style="edgeStyle=orthogonalEdgeStyle;rounded=0;orthogonalLoop=1;jettySize=auto;html=1;entryX=0;entryY=0.5;entryDx=0;entryDy=0;fontSize=14;" parent="WIyWlLk6GJQsqaUBKTNV-1" source="as_24OD4NIslSTrrhi6Q-11" target="as_24OD4NIslSTrrhi6Q-7" edge="1">
                    <mxGeometry relative="1" as="geometry">
                        <Array as="points">
                            <mxPoint x="540" y="560"/>
                        </Array>
                    </mxGeometry>
                </mxCell>
                <mxCell id="as_24OD4NIslSTrrhi6Q-11" value="Output&lt;br&gt;&quot;Jakarta&quot;" style="shape=parallelogram;perimeter=parallelogramPerimeter;whiteSpace=wrap;html=1;fixedSize=1;" parent="WIyWlLk6GJQsqaUBKTNV-1" vertex="1">
                    <mxGeometry x="480" y="440" width="120" height="60" as="geometry"/>
                </mxCell>
                <mxCell id="as_24OD4NIslSTrrhi6Q-21" value="&lt;div style=&quot;text-align: justify ; font-size: 17px&quot;&gt;&lt;span&gt;&lt;font style=&quot;font-size: 17px&quot;&gt;1. Start&lt;/font&gt;&lt;/span&gt;&lt;/div&gt;&lt;div style=&quot;text-align: justify ; font-size: 17px&quot;&gt;&lt;span&gt;&lt;font style=&quot;font-size: 17px&quot;&gt;2. Menginput string &quot;Jakarta&quot;&lt;/font&gt;&lt;/span&gt;&lt;/div&gt;&lt;div style=&quot;text-align: justify ; font-size: 17px&quot;&gt;&lt;span&gt;&lt;font style=&quot;font-size: 17px&quot;&gt;3. Proses pengecekan huruf&lt;/font&gt;&lt;/span&gt;&lt;/div&gt;&lt;div style=&quot;text-align: justify ; font-size: 17px&quot;&gt;&lt;span&gt;&lt;font style=&quot;font-size: 17px&quot;&gt;4. Apakah terdapat huruf &quot;a&quot;?&lt;/font&gt;&lt;/span&gt;&lt;/div&gt;&lt;div style=&quot;text-align: justify ; font-size: 17px&quot;&gt;&lt;font style=&quot;font-size: 17px&quot;&gt;5. Jika &quot;iya&quot; maka akan ada proses pergantian huruf &quot;a&quot; menjadi &quot;o&quot;&lt;/font&gt;&lt;/div&gt;&lt;div style=&quot;text-align: justify ; font-size: 17px&quot;&gt;&lt;font style=&quot;font-size: 17px&quot;&gt;6. Lalu akan mengeluarkan output &quot;Jokorto&quot;&lt;/font&gt;&lt;/div&gt;&lt;div style=&quot;text-align: justify ; font-size: 17px&quot;&gt;&lt;font style=&quot;font-size: 17px&quot;&gt;7. Jika &quot;Tidak&quot; maka output akan tetap sama seperti yang di inputkan&lt;/font&gt;&lt;/div&gt;&lt;div style=&quot;text-align: justify ; font-size: 17px&quot;&gt;&lt;font style=&quot;font-size: 17px&quot;&gt;8. End&lt;/font&gt;&lt;/div&gt;" style="text;html=1;align=center;verticalAlign=middle;resizable=0;points=[];autosize=1;strokeColor=none;fillColor=none;" parent="WIyWlLk6GJQsqaUBKTNV-1" vertex="1">
                    <mxGeometry x="760" y="60" width="540" height="120" as="geometry"/>
                </mxCell>
            </root>
        </mxGraphModel>
    </diagram>
</mxfile>